<svg width="238" height="60" viewBox="0 0 238 60" fill="none" xmlns="http://www.w3.org/2000/svg">
<path d="M89.3182 20.2727C89.3182 22.1534 88.9659 23.7642 88.2614 25.1051C87.5625 26.4403 86.608 27.4631 85.3977 28.1733C84.1932 28.8835 82.8267 29.2386 81.2983 29.2386C79.7699 29.2386 78.4006 28.8835 77.1903 28.1733C75.9858 27.4574 75.0313 26.4318 74.3267 25.0966C73.6278 23.7557 73.2784 22.1477 73.2784 20.2727C73.2784 18.392 73.6278 16.7841 74.3267 15.4489C75.0313 14.108 75.9858 13.0824 77.1903 12.3722C78.4006 11.6619 79.7699 11.3068 81.2983 11.3068C82.8267 11.3068 84.1932 11.6619 85.3977 12.3722C86.608 13.0824 87.5625 14.108 88.2614 15.4489C88.9659 16.7841 89.3182 18.392 89.3182 20.2727ZM86.1392 20.2727C86.1392 18.9489 85.9318 17.8324 85.517 16.9233C85.108 16.0085 84.5398 15.3182 83.8125 14.8523C83.0852 14.3807 82.2472 14.1449 81.2983 14.1449C80.3494 14.1449 79.5114 14.3807 78.7841 14.8523C78.0568 15.3182 77.4858 16.0085 77.071 16.9233C76.6619 17.8324 76.4574 18.9489 76.4574 20.2727C76.4574 21.5966 76.6619 22.7159 77.071 23.6307C77.4858 24.5398 78.0568 25.2301 78.7841 25.7017C79.5114 26.1676 80.3494 26.4006 81.2983 26.4006C82.2472 26.4006 83.0852 26.1676 83.8125 25.7017C84.5398 25.2301 85.108 24.5398 85.517 23.6307C85.9318 22.7159 86.1392 21.5966 86.1392 20.2727ZM92.3075 29V11.5455H103.532V14.196H95.4695V18.2869H98.8359C100.171 18.2869 101.316 18.5057 102.271 18.9432C103.231 19.375 103.967 19.9858 104.478 20.7756C104.989 21.5653 105.245 22.4943 105.245 23.5625C105.245 24.6364 104.989 25.5824 104.478 26.4006C103.967 27.2131 103.231 27.8494 102.271 28.3097C101.316 28.7699 100.171 29 98.8359 29H92.3075ZM95.4695 26.4091H98.8359C99.5405 26.4091 100.137 26.2756 100.626 26.0085C101.114 25.7415 101.484 25.3892 101.734 24.9517C101.989 24.5142 102.117 24.0398 102.117 23.5284C102.117 22.7898 101.833 22.1619 101.265 21.6449C100.702 21.1222 99.8928 20.8608 98.8359 20.8608H95.4695V26.4091ZM130.332 26.4688L130.093 33.108H127.17V29H125.661V26.4688H130.332ZM108.471 11.5455H111.582V26.375H116.968V11.5455H120.062V26.375H125.406V11.5455H128.499V29H108.471V11.5455ZM132.901 29V11.5455H144.254V14.196H136.063V18.9347H143.665V21.5852H136.063V26.3494H144.322V29H132.901ZM159.786 11.5455V29H156.684V11.5455H159.786ZM146.431 29L151.971 19.8295L146.746 11.5455H150.624L154.749 18.9176H161.798L165.854 11.5455H169.715L164.567 19.821L170.039 29H166.298L162.249 21.8494H154.263L150.138 29H146.431ZM172.44 11.5455H175.577V23.4432H175.739L183.946 11.5455H186.784V29H183.622V17.1108H183.477L175.244 29H172.44V11.5455ZM189.462 14.196V11.5455H203.388V14.196H197.994V29H194.857V14.196H189.462ZM206.073 11.5455H209.21V23.4432H209.371L217.579 11.5455H220.417V29H217.255V17.1108H217.11L208.877 29H206.073V11.5455ZM223.862 29V11.5455H235.214V14.196H227.024V18.9347H234.626V21.5852H227.024V26.3494H235.283V29H223.862Z" fill="#333333"/>
<path d="M72.7045 39.875V38.3636H81.7102V39.875H78.0795V50H76.3295V39.875H72.7045ZM93.3082 44.1818C93.3082 45.4242 93.081 46.4924 92.6264 47.3864C92.1719 48.2765 91.5488 48.9621 90.7571 49.4432C89.9692 49.9205 89.0734 50.1591 88.0696 50.1591C87.062 50.1591 86.1624 49.9205 85.3707 49.4432C84.5829 48.9621 83.9616 48.2746 83.5071 47.3807C83.0526 46.4867 82.8253 45.4205 82.8253 44.1818C82.8253 42.9394 83.0526 41.8731 83.5071 40.983C83.9616 40.089 84.5829 39.4034 85.3707 38.9261C86.1624 38.4451 87.062 38.2045 88.0696 38.2045C89.0734 38.2045 89.9692 38.4451 90.7571 38.9261C91.5488 39.4034 92.1719 40.089 92.6264 40.983C93.081 41.8731 93.3082 42.9394 93.3082 44.1818ZM91.5696 44.1818C91.5696 43.2348 91.4162 42.4375 91.1094 41.7898C90.8063 41.1383 90.3897 40.6458 89.8594 40.3125C89.3329 39.9754 88.7363 39.8068 88.0696 39.8068C87.3991 39.8068 86.8007 39.9754 86.2741 40.3125C85.7476 40.6458 85.331 41.1383 85.0241 41.7898C84.7211 42.4375 84.5696 43.2348 84.5696 44.1818C84.5696 45.1288 84.7211 45.928 85.0241 46.5795C85.331 47.2273 85.7476 47.7197 86.2741 48.0568C86.8007 48.3902 87.3991 48.5568 88.0696 48.5568C88.7363 48.5568 89.3329 48.3902 89.8594 48.0568C90.3897 47.7197 90.8063 47.2273 91.1094 46.5795C91.4162 45.928 91.5696 45.1288 91.5696 44.1818ZM95.4972 38.3636H97.6278L101.332 47.4091H101.469L105.173 38.3636H107.304V50H105.634V41.5795H105.526L102.094 49.983H100.707L97.2756 41.5739H97.1676V50H95.4972V38.3636ZM119.521 42.1477H117.749C117.68 41.7689 117.554 41.4356 117.368 41.1477C117.182 40.8598 116.955 40.6155 116.686 40.4148C116.417 40.214 116.116 40.0625 115.783 39.9602C115.453 39.858 115.103 39.8068 114.732 39.8068C114.061 39.8068 113.461 39.9754 112.93 40.3125C112.404 40.6496 111.987 41.1439 111.68 41.7955C111.377 42.447 111.226 43.2424 111.226 44.1818C111.226 45.1288 111.377 45.928 111.68 46.5795C111.987 47.2311 112.406 47.7235 112.936 48.0568C113.466 48.3902 114.063 48.5568 114.726 48.5568C115.093 48.5568 115.442 48.5076 115.771 48.4091C116.105 48.3068 116.406 48.1572 116.675 47.9602C116.944 47.7633 117.171 47.5227 117.357 47.2386C117.546 46.9508 117.677 46.6212 117.749 46.25L119.521 46.2557C119.427 46.8277 119.243 47.3542 118.97 47.8352C118.701 48.3125 118.355 48.7254 117.93 49.0739C117.51 49.4186 117.029 49.6856 116.487 49.875C115.946 50.0644 115.355 50.1591 114.714 50.1591C113.707 50.1591 112.809 49.9205 112.021 49.4432C111.233 48.9621 110.612 48.2746 110.158 47.3807C109.707 46.4867 109.482 45.4205 109.482 44.1818C109.482 42.9394 109.709 41.8731 110.163 40.983C110.618 40.089 111.239 39.4034 112.027 38.9261C112.815 38.4451 113.711 38.2045 114.714 38.2045C115.332 38.2045 115.908 38.2936 116.442 38.4716C116.98 38.6458 117.463 38.9034 117.891 39.2443C118.319 39.5814 118.673 39.9943 118.953 40.483C119.233 40.9678 119.423 41.5227 119.521 42.1477ZM128.526 50L124.616 44.7841H123.378V50H121.622V38.3636H123.378V43.2784H123.952L128.349 38.3636H130.491L125.838 43.5739L130.668 50H128.526ZM132.294 38.3636H134.033V46.9091H134.141L140.061 38.3636H141.686V50H139.93V41.4659H139.822L133.913 50H132.294V38.3636ZM144.247 38.3636H145.986V46.9091H146.094L152.014 38.3636H153.639V50H151.884V41.4659H151.776L145.866 50H144.247V38.3636ZM150.06 35.4091H151.457C151.457 36.0492 151.23 36.5701 150.776 36.9716C150.325 37.3693 149.715 37.5682 148.946 37.5682C148.181 37.5682 147.573 37.3693 147.122 36.9716C146.671 36.5701 146.446 36.0492 146.446 35.4091H147.838C147.838 35.6932 147.921 35.9451 148.088 36.1648C148.255 36.3807 148.541 36.4886 148.946 36.4886C149.344 36.4886 149.628 36.3807 149.798 36.1648C149.973 35.9489 150.06 35.697 150.06 35.4091ZM169.531 38.3636V50H167.781V39.8636H162.304V50H160.554V38.3636H169.531ZM182.324 44.1818C182.324 45.4242 182.097 46.4924 181.642 47.3864C181.188 48.2765 180.564 48.9621 179.773 49.4432C178.985 49.9205 178.089 50.1591 177.085 50.1591C176.078 50.1591 175.178 49.9205 174.386 49.4432C173.598 48.9621 172.977 48.2746 172.523 47.3807C172.068 46.4867 171.841 45.4205 171.841 44.1818C171.841 42.9394 172.068 41.8731 172.523 40.983C172.977 40.089 173.598 39.4034 174.386 38.9261C175.178 38.4451 176.078 38.2045 177.085 38.2045C178.089 38.2045 178.985 38.4451 179.773 38.9261C180.564 39.4034 181.188 40.089 181.642 40.983C182.097 41.8731 182.324 42.9394 182.324 44.1818ZM180.585 44.1818C180.585 43.2348 180.432 42.4375 180.125 41.7898C179.822 41.1383 179.405 40.6458 178.875 40.3125C178.348 39.9754 177.752 39.8068 177.085 39.8068C176.415 39.8068 175.816 39.9754 175.29 40.3125C174.763 40.6458 174.347 41.1383 174.04 41.7898C173.737 42.4375 173.585 43.2348 173.585 44.1818C173.585 45.1288 173.737 45.928 174.04 46.5795C174.347 47.2273 174.763 47.7197 175.29 48.0568C175.816 48.3902 176.415 48.5568 177.085 48.5568C177.752 48.5568 178.348 48.3902 178.875 48.0568C179.405 47.7197 179.822 47.2273 180.125 46.5795C180.432 45.928 180.585 45.1288 180.585 44.1818ZM183.632 50V48.4773L183.973 48.4659C184.435 48.4545 184.799 48.2973 185.064 47.9943C185.333 47.6913 185.528 47.2027 185.649 46.5284C185.774 45.8542 185.857 44.9545 185.899 43.8295L186.098 38.3636H193.456V50H191.723V39.8523H187.751L187.57 44.2955C187.52 45.5417 187.395 46.589 187.195 47.4375C186.994 48.2822 186.653 48.9205 186.172 49.3523C185.695 49.7841 185.015 50 184.132 50H183.632ZM196.013 38.3636H197.751V46.9091H197.859L203.78 38.3636H205.405V50H203.649V41.4659H203.541L197.632 50H196.013V38.3636ZM207.392 39.875V38.3636H216.398V39.875H212.767V50H211.017V39.875H207.392ZM218.388 50V38.3636H225.683V39.875H220.143V43.4205H225.303V44.9261H220.143V48.4886H225.751V50H218.388ZM229.25 38.3636L232.034 42.9148H232.125L234.909 38.3636H236.943L233.318 44.1818L236.966 50H234.92L232.125 45.5114H232.034L229.239 50H227.193L230.903 44.1818L227.216 38.3636H229.25Z" fill="#28BE46"/>
<g clip-path="url(#clip0_100_156)">
<path d="M59.9338 23.8509L49.9979 20.2344L40.0575 23.8509L30.1213 20.2344L20.1808 23.8509L10.2447 20.2344L0.308594 23.8509V36.4915L10.2447 40.1122L20.1808 36.4915L30.1213 40.1122L40.0575 36.4915L49.9979 40.1122L59.9338 36.4915V23.8509Z" fill="black"/>
<path d="M59.9338 3.9725L49.9979 0.355957L40.0575 3.9725L30.1213 0.355957L20.1808 3.9725L10.2447 0.355957L0.308594 3.9725V16.6174L10.2447 20.2339L20.1808 16.6174L30.1213 20.2339L40.0575 16.6174L49.9979 20.2339L59.9338 16.6174V3.9725Z" fill="#28BE46"/>
<path d="M20.1808 3.9725L10.2403 7.59335L0.304199 3.9725L10.2403 0.355957L20.1808 3.9725Z" fill="black"/>
<path d="M40.0528 3.9725L30.1168 7.59335L20.1807 3.9725L30.1168 0.355957L40.0528 3.9725Z" fill="black"/>
<path d="M59.9295 3.9725L49.9936 7.59335L40.0532 3.9725L49.9936 0.355957L59.9295 3.9725Z" fill="black"/>
<path d="M0.304199 36.4898L10.2403 32.8733L20.1808 36.4898L10.2403 40.1108L0.304199 36.4898Z" fill="#28BE46"/>
<path d="M40.0576 36.4898L49.9939 32.8733L59.9343 36.4898L49.9939 40.1108L40.0576 36.4898Z" fill="#28BE46"/>
<path d="M40.0528 23.8513L30.1168 27.4679L20.1807 23.8513V36.4919L30.1168 40.1127L40.0528 36.4919V23.8513Z" fill="#28BE46"/>
<path d="M59.9338 43.7293L49.9979 40.113L40.0575 43.7293L30.1213 40.113L20.1808 43.7293L10.2447 40.113L0.308594 43.7293V56.3701L10.2447 59.9867L20.1808 56.3701L30.1213 59.9867L40.0575 56.3701L49.9979 59.9867L59.9338 56.3701V43.7293Z" fill="black"/>
<path d="M0.304199 56.3697L10.2403 52.7534L20.1808 56.3697L10.2403 59.9864L0.304199 56.3697Z" fill="#28BE46"/>
<path d="M40.0576 56.3697L49.9939 52.7534L59.9343 56.3697L49.9939 59.9864L40.0576 56.3697Z" fill="#28BE46"/>
<path d="M40.0528 43.728L30.1168 47.3447L20.1807 43.728V56.3688L30.1168 59.9854L40.0528 56.3688V43.728Z" fill="#28BE46"/>
</g>
<defs>
<clipPath id="clip0_100_156">
<rect width="60" height="60" fill="white"/>
</clipPath>
</defs>
</svg>
